<svg width="73" height="89" viewBox="0 0 73 89" fill="none" xmlns="http://www.w3.org/2000/svg">
<path d="M51.542 52.7559H49.8574C49.7109 52.1699 49.4424 51.4782 49.0518 50.6807C48.6774 49.8669 48.2542 49.1019 47.7822 48.3857C47.2939 47.637 46.7568 46.986 46.1709 46.4326C45.6012 45.863 45.0479 45.5374 44.5107 45.4561C44.0062 45.391 43.3714 45.3421 42.6064 45.3096C41.8415 45.277 41.1335 45.2607 40.4824 45.2607H39.0664V72.9707C39.0664 73.5078 39.1803 74.0042 39.4082 74.46C39.6361 74.8994 40.0348 75.2412 40.6045 75.4854C40.8975 75.5993 41.5078 75.7539 42.4355 75.9492C43.3796 76.1445 44.112 76.2503 44.6328 76.2666V78H28.2754V76.2666C28.7311 76.234 29.4229 76.1689 30.3506 76.0713C31.2946 75.9736 31.9456 75.8516 32.3037 75.7051C32.8408 75.4935 33.2314 75.1924 33.4756 74.8018C33.736 74.3949 33.8662 73.8577 33.8662 73.1904V45.2607H32.4502C31.9456 45.2607 31.319 45.277 30.5703 45.3096C29.8216 45.3258 29.1055 45.3747 28.4219 45.4561C27.8848 45.5212 27.3232 45.8467 26.7373 46.4326C26.1676 47.0023 25.6387 47.6533 25.1504 48.3857C24.6621 49.1182 24.2308 49.8994 23.8564 50.7295C23.4821 51.5433 23.2217 52.2188 23.0752 52.7559H21.3662V43.3564H51.542V52.7559Z" fill="black"/>
<circle cx="36.5" cy="47.5" r="34.5" stroke="black" stroke-width="4"/>
<path d="M35.5361 73.2568C32.3115 73.2568 29.2139 72.6221 26.2432 71.3525C23.2979 70.083 20.6826 68.2549 18.3975 65.8682C16.1377 63.4814 14.335 60.5742 12.9893 57.1465C11.6436 53.6934 10.9707 49.8086 10.9707 45.4922C10.9707 41.1758 11.6309 37.2656 12.9512 33.7617C14.2715 30.2324 16.0996 27.1982 18.4355 24.6592C20.7461 22.1455 23.4756 20.2031 26.624 18.832C29.7725 17.4609 33.1367 16.7754 36.7168 16.7754C39.3828 16.7754 41.7949 17.1055 43.9531 17.7656C46.1113 18.4258 48.168 19.3525 50.123 20.5459L51.6846 17.9561H54.7314L55.0742 37.2275H51.9512C51.5449 35.3486 50.9355 33.3174 50.123 31.1338C49.3105 28.9248 48.3584 27.0586 47.2666 25.5352C46.0479 23.8086 44.6006 22.4629 42.9248 21.498C41.249 20.5078 39.332 20.0127 37.1738 20.0127C34.7109 20.0127 32.4131 20.5586 30.2803 21.6504C28.1729 22.7422 26.3447 24.3545 24.7959 26.4873C23.3232 28.5439 22.168 31.1592 21.3301 34.333C20.4922 37.5068 20.0732 41.0488 20.0732 44.959C20.0732 48.4121 20.5049 51.5859 21.3682 54.4805C22.2568 57.3496 23.5137 59.876 25.1387 62.0596C26.7637 64.2178 28.6807 65.9062 30.8896 67.125C33.124 68.3438 35.6123 68.9531 38.3545 68.9531C40.4111 68.9531 42.3027 68.6357 44.0293 68.001C45.7559 67.3408 47.2539 66.4775 48.5234 65.4111C49.793 64.2939 50.9102 63.0244 51.875 61.6025C52.8398 60.1807 53.627 58.6318 54.2363 56.9561L57.0928 58.3271C54.9092 63.6846 52.0146 67.5186 48.4092 69.8291C44.8037 72.1143 40.5127 73.2568 35.5361 73.2568Z" fill="black"/>
<circle cx="56" cy="51" r="2" fill="black"/>
<circle cx="56" cy="45" r="2" fill="black"/>
</svg>
