<?xml version="1.0" encoding="UTF-8"?>
<svg id="Layer_2" data-name="Layer 2" xmlns="http://www.w3.org/2000/svg" viewBox="0 0 474.67 474.67">
  <defs>
    <style>
      .cls-1 {
        fill: #f41c1c;
      }

      .cls-2 {
        fill: none;
        stroke: #000;
        stroke-miterlimit: 10;
        stroke-width: 6px;
      }

      .cls-3 {
        font-family: MontserratRoman-Medium, Montserrat;
        font-size: 27.2px;
        font-variation-settings: 'wght' 500;
        font-weight: 500;
      }
    </style>
  </defs>
  <g id="Layer_1-2" data-name="Layer 1">
    <text class="cls-3" transform="translate(58.99 118.36) rotate(-54.11)"><tspan x="0" y="0">T</tspan></text>
    <text class="cls-3" transform="translate(68.1 105.66) rotate(-49.61)"><tspan x="0" y="0">h</tspan></text>
    <text class="cls-3" transform="translate(79.89 91.84) rotate(-45.03)"><tspan x="0" y="0">e</tspan></text>
    <text class="cls-3" transform="translate(91.56 80.32) rotate(-41.91)"><tspan x="0" y="0"> </tspan></text>
    <text class="cls-3" transform="translate(96.6 75.43) rotate(-37.99)"><tspan x="0" y="0">O</tspan></text>
    <text class="cls-3" transform="translate(114.5 61.77) rotate(-34.02)"><tspan x="0" y="0">l</tspan></text>
    <text class="cls-3" transform="translate(120.49 57.52) rotate(-30.59)"><tspan x="0" y="0">d</tspan></text>
    <text class="cls-3" transform="translate(136.29 48.36) rotate(-27.2)"><tspan x="0" y="0"> </tspan></text>
    <text class="cls-3" transform="translate(142.47 44.96) rotate(-23.65)"><tspan x="0" y="0">C</tspan></text>
    <text class="cls-3" transform="translate(160.15 37.27) rotate(-18.87)"><tspan x="0" y="0">e</tspan></text>
    <text class="cls-3" transform="translate(175.61 32.03) rotate(-14.87)"><tspan x="0" y="0">s</tspan></text>
    <text class="cls-3" transform="translate(188.47 28.55) rotate(-10.89)"><tspan x="0" y="0">e</tspan></text>
    <text class="cls-3" transform="translate(204.46 25.42) rotate(-6.27)"><tspan x="0" y="0">n</tspan></text>
    <text class="cls-3" transform="translate(222.52 23.47) rotate(-1.76)"><tspan x="0" y="0">a</tspan></text>
    <text class="cls-3" transform="translate(238.52 23.09) rotate(1.27)"><tspan x="0" y="0"> </tspan></text>
    <text class="cls-3" transform="translate(245.6 23.13) rotate(4.28)"><tspan x="0" y="0">T</tspan></text>
    <text class="cls-3" transform="translate(261.28 24.41) rotate(7.36)"><tspan x="0" y="0">i</tspan></text>
    <text class="cls-3" transform="translate(268.51 24.88) rotate(12.13)"><tspan x="0" y="0">m</tspan></text>
    <text class="cls-3" transform="translate(296.11 31.11) rotate(18.12)"><tspan x="0" y="0">e</tspan></text>
    <text class="cls-3" transform="translate(311.62 36.23) rotate(22.11)"><tspan x="0" y="0">s</tspan></text>
    <text class="cls-3" transform="translate(323.99 41.33) rotate(24.86)"><tspan x="0" y="0"> </tspan></text>
    <text class="cls-3" transform="translate(330.51 44.35) rotate(26.8)"><tspan x="0" y="0"> </tspan></text>
    <text class="cls-3" transform="translate(336.9 47.58) rotate(28.71)"><tspan x="0" y="0">路</tspan></text>
    <text class="cls-3" transform="translate(343.12 50.98) rotate(30.61)"><tspan x="0" y="0"> </tspan></text>
    <text class="cls-3" transform="translate(349.31 54.64) rotate(32.54)"><tspan x="0" y="0"> </tspan></text>
    <text class="cls-3" transform="translate(355.33 58.33) rotate(35.57)"><tspan x="0" y="0">T</tspan></text>
    <text class="cls-3" transform="translate(368.07 67.37) rotate(40.07)"><tspan x="0" y="0">h</tspan></text>
    <text class="cls-3" transform="translate(381.95 79.08) rotate(44.65)"><tspan x="0" y="0">e</tspan></text>
    <text class="cls-3" transform="translate(393.53 90.68) rotate(47.76)"><tspan x="0" y="0"> </tspan></text>
    <text class="cls-3" transform="translate(398.46 95.71) rotate(51.7)"><tspan x="0" y="0">O</tspan></text>
    <text class="cls-3" transform="translate(412.22 113.53) rotate(55.67)"><tspan x="0" y="0">l</tspan></text>
    <text class="cls-3" transform="translate(416.49 119.48) rotate(59.08)"><tspan x="0" y="0">d</tspan></text>
    <text class="cls-3" transform="translate(425.74 135.24) rotate(62.48)"><tspan x="0" y="0"> </tspan></text>
    <text class="cls-3" transform="translate(429.17 141.38) rotate(66.02)"><tspan x="0" y="0">C</tspan></text>
    <text class="cls-3" transform="translate(436.97 159.04) rotate(70.81)"><tspan x="0" y="0">e</tspan></text>
    <text class="cls-3" transform="translate(442.3 174.47) rotate(74.8)"><tspan x="0" y="0">s</tspan></text>
    <text class="cls-3" transform="translate(445.85 187.31) rotate(78.79)"><tspan x="0" y="0">e</tspan></text>
    <text class="cls-3" transform="translate(449.07 203.29) rotate(83.41)"><tspan x="0" y="0">n</tspan></text>
    <text class="cls-3" transform="translate(451.12 221.32) rotate(87.93)"><tspan x="0" y="0">a</tspan></text>
    <text class="cls-3" transform="translate(451.59 237.34) rotate(90.96)"><tspan x="0" y="0"> </tspan></text>
    <text class="cls-3" transform="translate(451.59 244.41) rotate(93.97)"><tspan x="0" y="0">T</tspan></text>
    <text class="cls-3" transform="translate(450.4 260.1) rotate(97.04)"><tspan x="0" y="0">i</tspan></text>
    <text class="cls-3" transform="translate(449.96 267.34) rotate(101.81)"><tspan x="0" y="0">m</tspan></text>
    <text class="cls-3" transform="translate(443.89 294.96) rotate(107.8)"><tspan x="0" y="0">e</tspan></text>
    <text class="cls-3" transform="translate(438.86 310.49) rotate(111.79)"><tspan x="0" y="0">s</tspan></text>
    <text class="cls-3" transform="translate(433.82 322.91) rotate(114.55)"><tspan x="0" y="0"> </tspan></text>
    <text class="cls-3" transform="translate(430.85 329.42) rotate(116.47)"><tspan x="0" y="0"> </tspan></text>
    <text class="cls-3" transform="translate(427.66 335.83) rotate(118.38)"><tspan x="0" y="0">路</tspan></text>
    <text class="cls-3" transform="translate(424.27 342.11) rotate(120.3)"><tspan x="0" y="0"> </tspan></text>
    <text class="cls-3" transform="translate(420.67 348.28) rotate(122.21)"><tspan x="0" y="0"> </tspan></text>
    <text class="cls-3" transform="translate(416.99 354.34) rotate(125.26)"><tspan x="0" y="0">T</tspan></text>
    <text class="cls-3" transform="translate(408.03 367.13) rotate(129.76)"><tspan x="0" y="0">h</tspan></text>
    <text class="cls-3" transform="translate(396.41 381.06) rotate(134.33)"><tspan x="0" y="0">e</tspan></text>
    <text class="cls-3" transform="translate(384.86 392.72) rotate(137.45)"><tspan x="0" y="0"> </tspan></text>
    <text class="cls-3" transform="translate(379.87 397.67) rotate(141.38)"><tspan x="0" y="0">O</tspan></text>
    <text class="cls-3" transform="translate(362.13 411.52) rotate(145.34)"><tspan x="0" y="0">l</tspan></text>
    <text class="cls-3" transform="translate(356.18 415.84) rotate(148.77)"><tspan x="0" y="0">d</tspan></text>
    <text class="cls-3" transform="translate(340.47 425.18) rotate(152.16)"><tspan x="0" y="0"> </tspan></text>
    <text class="cls-3" transform="translate(334.35 428.64) rotate(155.7)"><tspan x="0" y="0">C</tspan></text>
    <text class="cls-3" transform="translate(316.76 436.53) rotate(160.49)"><tspan x="0" y="0">e</tspan></text>
    <text class="cls-3" transform="translate(301.33 441.95) rotate(164.48)"><tspan x="0" y="0">s</tspan></text>
    <text class="cls-3" transform="translate(288.52 445.57) rotate(168.47)"><tspan x="0" y="0">e</tspan></text>
    <text class="cls-3" transform="translate(272.58 448.88) rotate(173.09)"><tspan x="0" y="0">n</tspan></text>
    <text class="cls-3" transform="translate(254.54 451.03) rotate(177.61)"><tspan x="0" y="0">a</tspan></text>
    <text class="cls-3" transform="translate(238.55 451.61) rotate(-179.07)"><tspan x="0" y="0"> </tspan></text>
    <text class="cls-3" transform="translate(231.44 451.63) rotate(-176.35)"><tspan x="0" y="0">T</tspan></text>
    <text class="cls-3" transform="translate(215.75 450.52) rotate(-173.27)"><tspan x="0" y="0">i</tspan></text>
    <text class="cls-3" transform="translate(208.54 450.13) rotate(-168.51)"><tspan x="0" y="0">m</tspan></text>
    <text class="cls-3" transform="translate(180.86 444.21) rotate(-162.52)"><tspan x="0" y="0">e</tspan></text>
    <text class="cls-3" transform="translate(165.32 439.27) rotate(-158.53)"><tspan x="0" y="0">s</tspan></text>
    <text class="cls-3" transform="translate(152.85 434.29) rotate(-155.77)"><tspan x="0" y="0"> </tspan></text>
    <text class="cls-3" transform="translate(146.32 431.36) rotate(-153.85)"><tspan x="0" y="0"> </tspan></text>
    <text class="cls-3" transform="translate(139.89 428.2) rotate(-151.93)"><tspan x="0" y="0">路</tspan></text>
    <text class="cls-3" transform="translate(133.63 424.87) rotate(-150.02)"><tspan x="0" y="0"> </tspan></text>
    <text class="cls-3" transform="translate(127.4 421.28) rotate(-148.1)"><tspan x="0" y="0"> </tspan></text>
    <text class="cls-3" transform="translate(121.35 417.65) rotate(-145.07)"><tspan x="0" y="0">T</tspan></text>
    <text class="cls-3" transform="translate(108.5 408.76) rotate(-140.56)"><tspan x="0" y="0">h</tspan></text>
    <text class="cls-3" transform="translate(94.48 397.19) rotate(-135.98)"><tspan x="0" y="0">e</tspan></text>
    <text class="cls-3" transform="translate(82.77 385.71) rotate(-132.87)"><tspan x="0" y="0"> </tspan></text>
    <text class="cls-3" transform="translate(77.81 380.78) rotate(-128.94)"><tspan x="0" y="0">O</tspan></text>
    <text class="cls-3" transform="translate(63.84 363.08) rotate(-124.97)"><tspan x="0" y="0">l</tspan></text>
    <text class="cls-3" transform="translate(59.51 357.19) rotate(-121.55)"><tspan x="0" y="0">d</tspan></text>
    <text class="cls-3" transform="translate(50.08 341.54) rotate(-118.16)"><tspan x="0" y="0"> </tspan></text>
    <text class="cls-3" transform="translate(46.57 335.4) rotate(-114.61)"><tspan x="0" y="0">C</tspan></text>
    <text class="cls-3" transform="translate(38.59 317.86) rotate(-109.83)"><tspan x="0" y="0">e</tspan></text>
    <text class="cls-3" transform="translate(33.08 302.48) rotate(-105.84)"><tspan x="0" y="0">s</tspan></text>
    <text class="cls-3" transform="translate(29.39 289.68) rotate(-101.85)"><tspan x="0" y="0">e</tspan></text>
    <text class="cls-3" transform="translate(26 273.77) rotate(-97.23)"><tspan x="0" y="0">n</tspan></text>
    <text class="cls-3" transform="translate(23.74 255.72) rotate(-92.7)"><tspan x="0" y="0">a</tspan></text>
    <text class="cls-3" transform="translate(23.06 239.78) rotate(-89.07)"><tspan x="0" y="0"> </tspan></text>
    <text class="cls-3" transform="translate(23.02 232.64) rotate(-86.66)"><tspan x="0" y="0">T</tspan></text>
    <text class="cls-3" transform="translate(24.04 216.95) rotate(-83.6)"><tspan x="0" y="0">i</tspan></text>
    <text class="cls-3" transform="translate(24.39 209.7) rotate(-78.83)"><tspan x="0" y="0">m</tspan></text>
    <text class="cls-3" transform="translate(30.16 182.02) rotate(-72.84)"><tspan x="0" y="0">e</tspan></text>
    <text class="cls-3" transform="translate(35.01 166.44) rotate(-68.85)"><tspan x="0" y="0">s</tspan></text>
    <text class="cls-3" transform="translate(39.91 153.97) rotate(-66.1)"><tspan x="0" y="0"> </tspan></text>
    <text class="cls-3" transform="translate(42.81 147.41) rotate(-64.17)"><tspan x="0" y="0"> </tspan></text>
    <text class="cls-3" transform="translate(45.93 140.96) rotate(-62.25)"><tspan x="0" y="0">路</tspan></text>
    <g>
      <path d="m282.24,253.41c-.04-.8-.08-1.6-.13-2.4-.1-1.6-.21-3.2-.34-4.8-.13-1.61-.28-3.21-.44-4.81-.17-1.61-.35-3.21-.56-4.81-.21-1.6-.43-3.2-.68-4.8-.25-1.6-.52-3.19-.81-4.78-.29-1.59-.61-3.17-.95-4.74-.34-1.57-.71-3.14-1.1-4.7-.39-1.55-.81-3.1-1.25-4.64-.44-1.53-.92-3.06-1.42-4.57-.5-1.51-1.03-3.01-1.59-4.49-.56-1.48-1.15-2.95-1.77-4.4-.62-1.45-1.28-2.89-1.96-4.3-.69-1.41-1.41-2.81-2.16-4.19-.75-1.38-1.54-2.73-2.37-4.07-.83-1.34-1.69-2.65-2.59-3.94-.9-1.29-1.84-2.55-2.81-3.79-.98-1.24-1.99-2.45-3.04-3.63-.54-.61-1.09-1.2-1.64-1.79-13.33-14.08-32.19-22.73-51.52-23.66-19.33-.93-38.93,5.89-53.53,18.6-.59.52-1.17,1.04-1.74,1.55-4.51,4.18-8.51,8.9-11.97,13.97-3.48,5.08-6.44,10.52-8.92,16.17-2.51,5.73-4.56,11.66-6.2,17.69-1.67,6.1-2.95,12.28-3.89,18.52-.47,3.09-.86,6.22-1.19,9.34-.36,3.54-.22,7.08-.1,10.64.26,7.55.91,15.08,2.1,22.52,1.17,7.43,2.91,14.79,5.34,21.92,5.75,16.86,15.64,32.63,29.76,43.44,14.73,11.3,33.76,16.74,52.22,15.11,18.46-1.62,36.19-10.28,48.97-23.73,1.1-1.16,2.16-2.34,3.19-3.56,1.02-1.21,2-2.45,2.95-3.72.95-1.26,1.85-2.56,2.73-3.87.87-1.31,1.71-2.65,2.51-4.01.8-1.36,1.57-2.74,2.3-4.14.73-1.4,1.43-2.82,2.1-4.25.67-1.44,1.3-2.89,1.91-4.36.61-1.47,1.18-2.96,1.72-4.45.55-1.5,1.06-3.01,1.55-4.54.49-1.53.95-3.07,1.38-4.61.43-1.55.84-3.11,1.22-4.67.38-1.57.74-3.14,1.07-4.73.33-1.58.64-3.17.92-4.77.28-1.6.55-3.2.79-4.8.24-1.6.46-3.21.66-4.82.2-1.61.38-3.22.54-4.83.16-1.61.3-3.22.42-4.83.12-1.6.23-3.21.32-4.81.05-.89.07-1.76.02-2.66Zm-20.8,6.05c-.07,1.42-.15,2.85-.26,4.27-.2,2.7-.45,5.41-.76,8.1-.31,2.69-.68,5.38-1.12,8.05-.44,2.67-.95,5.33-1.53,7.97-.58,2.63-1.24,5.25-1.97,7.85-.74,2.59-1.55,5.15-2.46,7.69-.91,2.53-1.9,5.03-2.99,7.49-.94,2.13-1.96,4.23-3.05,6.29,0,.36-.59,1.09-.76,1.42-.28.5-.55,1-.84,1.5-.55.95-1.12,1.9-1.71,2.85-1.19,1.88-2.43,3.73-3.76,5.53-4.84,6.62-10.63,12.59-17.21,17.48-3.38,2.28-6.68,4.51-10.33,6.32-1.91.95-3.88,1.8-5.86,2.56-.98.38-1.98.74-2.98,1.11-.83.29-1.65.74-2.53.81-.74.05-1.45-.33-2.14-.52-.93-.26-1.86-.5-2.81-.71-1.36-.31-2.72-.67-4.05-1.11-2.65-.83-5.24-1.88-7.73-3.13-7.22-3.59-13.62-8.71-19.14-14.58-5.58-5.92-10.3-12.68-14.16-19.85-15.52-28.85-18.77-63.65-11.04-95.48,6.17-25.39,20.15-50.13,42.9-62.91,4.68-2.63,9.89-4.75,15.26-4.49,2.77.12,5.48.88,8.08,1.81,18.95,6.79,33.71,22.68,42.39,40.85,1.17,2.46,2.25,4.96,3.23,7.5.98,2.54,1.87,5.11,2.67,7.71.8,2.61,1.52,5.24,2.16,7.89.64,2.66,1.2,5.33,1.69,8.02.49,2.69.92,5.4,1.28,8.11.36,2.72.67,5.44.92,8.17.2,2.17.36,4.34.5,6.51.11,1.67.17,3.31.18,4.95,0,1.32-.02,2.63-.09,3.97Z"/>
      <path class="cls-1" d="m277.09,356.74c-20.22-.38-37.82-16.25-48.35-32.24-12.99-19.72-18.99-43.7-19.43-67.16-.45-23.81,4.76-48.27,17-68.85,5.46-9.18,12.39-17.68,20.9-24.19,3.46-2.64,7.16-4.95,11.08-6.83,2.06-.99,4.17-1.88,6.34-2.61,1.51-.51,10.07-1.77,4.58-1.67,1.32-.02,12.55-.02,12.67-1.23.14-1.35-6.01-1.01-7.26-.99-17.99.34-34.6,3.26-48.97,14.84-14.99,12.08-24.98,29.51-30.74,47.71-12.71,40.17-7.27,91.18,21.97,123.15,13.36,14.61,30.21,21.9,49.85,22.26,4.06.08,10.38.85,14.11-.93,3.12-1.49-2.33-1.24-3.76-1.27h0Z"/>
      <path d="m320.9,164.02c-7.89-6.01-16.13-9.34-24.86-11.12,15.22,0,30.65-.31,44.91-4.15,15.99-4.31,18.14-18.29,18.24-33.13,0-1.21-20.64-1.05-20.65.82-.08,11.72-.76,26.14-13.28,31.19-5.6,2.26-11.75,2.27-17.69,2.45-11.19.34-22.39.49-33.58.91h-.65c-1.31,0-12.55.03-12.67,1.23-.06.56.96.83,2.25.95,1.76.36,4.83.24,6.92.11,43.46,1.51,65.48,53.98,68.29,91.08,1.89,24.93-2.44,50.9-14.32,73.03-5.21,9.71-11.95,18.76-20.34,25.93-3.98,3.4-8.36,6.36-13.04,8.71-2.34,1.17-4.75,2.21-7.22,3.04-1.51.51-10.07,1.77-4.58,1.67-1.32.02-12.55.02-12.67,1.23-.14,1.35,6.01,1.01,7.26.99,18.55-.35,35.53-3.55,50.12-15.79,16.31-13.68,26.52-33.66,31.67-54.08,10.58-42,2.32-97.31-34.08-125.05Z"/>
    </g>
    <circle class="cls-2" cx="237.34" cy="237.34" r="192.25"/>
    <g>
      <path d="m282.24,253.41c-.04-.8-.08-1.6-.13-2.4-.1-1.6-.21-3.2-.34-4.8-.13-1.61-.28-3.21-.44-4.81-.17-1.61-.35-3.21-.56-4.81-.21-1.6-.43-3.2-.68-4.8-.25-1.6-.52-3.19-.81-4.78-.29-1.59-.61-3.17-.95-4.74-.34-1.57-.71-3.14-1.1-4.7-.39-1.55-.81-3.1-1.25-4.64-.44-1.53-.92-3.06-1.42-4.57-.5-1.51-1.03-3.01-1.59-4.49-.56-1.48-1.15-2.95-1.77-4.4-.62-1.45-1.28-2.89-1.96-4.3-.69-1.41-1.41-2.81-2.16-4.19-.75-1.38-1.54-2.73-2.37-4.07-.83-1.34-1.69-2.65-2.59-3.94-.9-1.29-1.84-2.55-2.81-3.79-.98-1.24-1.99-2.45-3.04-3.63-.54-.61-1.09-1.2-1.64-1.79-13.33-14.08-32.19-22.73-51.52-23.66-19.33-.93-38.93,5.89-53.53,18.6-.59.52-1.17,1.04-1.74,1.55-4.51,4.18-8.51,8.9-11.97,13.97-3.48,5.08-6.44,10.52-8.92,16.17-2.51,5.73-4.56,11.66-6.2,17.69-1.67,6.1-2.95,12.28-3.89,18.52-.47,3.09-.86,6.22-1.19,9.34-.36,3.54-.22,7.08-.1,10.64.26,7.55.91,15.08,2.1,22.52,1.17,7.43,2.91,14.79,5.34,21.92,5.75,16.86,15.64,32.63,29.76,43.44,14.73,11.3,33.76,16.74,52.22,15.11,18.46-1.62,36.19-10.28,48.97-23.73,1.1-1.16,2.16-2.34,3.19-3.56,1.02-1.21,2-2.45,2.95-3.72.95-1.26,1.85-2.56,2.73-3.87.87-1.31,1.71-2.65,2.51-4.01.8-1.36,1.57-2.74,2.3-4.14.73-1.4,1.43-2.82,2.1-4.25.67-1.44,1.3-2.89,1.91-4.36.61-1.47,1.18-2.96,1.72-4.45.55-1.5,1.06-3.01,1.55-4.54.49-1.53.95-3.07,1.38-4.61.43-1.55.84-3.11,1.22-4.67.38-1.57.74-3.14,1.07-4.73.33-1.58.64-3.17.92-4.77.28-1.6.55-3.2.79-4.8.24-1.6.46-3.21.66-4.82.2-1.61.38-3.22.54-4.83.16-1.61.3-3.22.42-4.83.12-1.6.23-3.21.32-4.81.05-.89.07-1.76.02-2.66Zm-20.8,6.05c-.07,1.42-.15,2.85-.26,4.27-.2,2.7-.45,5.41-.76,8.1-.31,2.69-.68,5.38-1.12,8.05-.44,2.67-.95,5.33-1.53,7.97-.58,2.63-1.24,5.25-1.97,7.85-.74,2.59-1.55,5.15-2.46,7.69-.91,2.53-1.9,5.03-2.99,7.49-.94,2.13-1.96,4.23-3.05,6.29,0,.36-.59,1.09-.76,1.42-.28.5-.55,1-.84,1.5-.55.95-1.12,1.9-1.71,2.85-1.19,1.88-2.43,3.73-3.76,5.53-4.84,6.62-10.63,12.59-17.21,17.48-3.38,2.28-6.68,4.51-10.33,6.32-1.91.95-3.88,1.8-5.86,2.56-.98.38-1.98.74-2.98,1.11-.83.29-1.65.74-2.53.81-.74.05-1.45-.33-2.14-.52-.93-.26-1.86-.5-2.81-.71-1.36-.31-2.72-.67-4.05-1.11-2.65-.83-5.24-1.88-7.73-3.13-7.22-3.59-13.62-8.71-19.14-14.58-5.58-5.92-10.3-12.68-14.16-19.85-15.52-28.85-18.77-63.65-11.04-95.48,6.17-25.39,20.15-50.13,42.9-62.91,4.68-2.63,9.89-4.75,15.26-4.49,2.77.12,5.48.88,8.08,1.81,18.95,6.79,33.71,22.68,42.39,40.85,1.17,2.46,2.25,4.96,3.23,7.5.98,2.54,1.87,5.11,2.67,7.71.8,2.61,1.52,5.24,2.16,7.89.64,2.66,1.2,5.33,1.69,8.02.49,2.69.92,5.4,1.28,8.11.36,2.72.67,5.44.92,8.17.2,2.17.36,4.34.5,6.51.11,1.67.17,3.31.18,4.95,0,1.32-.02,2.63-.09,3.97Z"/>
      <path class="cls-1" d="m277.09,356.74c-20.22-.38-37.82-16.25-48.35-32.24-12.99-19.72-18.99-43.7-19.43-67.16-.45-23.81,4.76-48.27,17-68.85,5.46-9.18,12.39-17.68,20.9-24.19,3.46-2.64,7.16-4.95,11.08-6.83,2.06-.99,4.17-1.88,6.34-2.61,1.51-.51,10.07-1.77,4.58-1.67,1.32-.02,12.55-.02,12.67-1.23.14-1.35-6.01-1.01-7.26-.99-17.99.34-34.6,3.26-48.97,14.84-14.99,12.08-24.98,29.51-30.74,47.71-12.71,40.17-7.27,91.18,21.97,123.15,13.36,14.61,30.21,21.9,49.85,22.26,4.06.08,10.38.85,14.11-.93,3.12-1.49-2.33-1.24-3.76-1.27h0Z"/>
      <path d="m320.9,164.02c-7.89-6.01-16.13-9.34-24.86-11.12,15.22,0,30.65-.31,44.91-4.15,15.99-4.31,18.14-18.29,18.24-33.13,0-1.21-20.64-1.05-20.65.82-.08,11.72-.76,26.14-13.28,31.19-5.6,2.26-11.75,2.27-17.69,2.45-11.19.34-22.39.49-33.58.91h-.65c-1.31,0-12.55.03-12.67,1.23-.06.56.96.83,2.25.95,1.76.36,4.83.24,6.92.11,43.46,1.51,65.48,53.98,68.29,91.08,1.89,24.93-2.44,50.9-14.32,73.03-5.21,9.71-11.95,18.76-20.34,25.93-3.98,3.4-8.36,6.36-13.04,8.71-2.34,1.17-4.75,2.21-7.22,3.04-1.51.51-10.07,1.77-4.58,1.67-1.32.02-12.55.02-12.67,1.23-.14,1.35,6.01,1.01,7.26.99,18.55-.35,35.53-3.55,50.12-15.79,16.31-13.68,26.52-33.66,31.67-54.08,10.58-42,2.32-97.31-34.08-125.05Z"/>
    </g>
    <circle class="cls-2" cx="237.34" cy="237.34" r="192.25"/>
  </g>
</svg>