<svg xmlns="http://www.w3.org/2000/svg" version="1.1" xmlns:xlink="http://www.w3.org/1999/xlink" xmlns:svgjs="http://svgjs.com/svgjs" width="279.78" height="281.14"><svg id="SvgjsSvg1001" data-name="Layer 2" xmlns="http://www.w3.org/2000/svg" viewBox="0 0 279.78 281.14">
  <defs>
    <style>
      .cls-1 {
        fill: #f41c1c;
      }
    </style>
  </defs>
  <g id="SvgjsG1000" data-name="Layer 1">
    <g>
      <path d="m191.42,159.01c-.05-.92-.1-1.83-.15-2.75-.11-1.84-.24-3.68-.39-5.51-.15-1.84-.32-3.68-.51-5.52-.19-1.84-.4-3.68-.64-5.52-.24-1.84-.49-3.68-.78-5.51-.28-1.83-.59-3.66-.93-5.48-.34-1.82-.7-3.63-1.09-5.44-.39-1.8-.81-3.6-1.26-5.39-.45-1.78-.93-3.56-1.44-5.33-.51-1.76-1.05-3.51-1.63-5.25-.57-1.73-1.18-3.45-1.83-5.16-.64-1.7-1.32-3.39-2.04-5.05-.71-1.66-1.46-3.31-2.25-4.94-.79-1.62-1.62-3.23-2.48-4.81-.87-1.58-1.77-3.14-2.72-4.67-.95-1.53-1.94-3.04-2.97-4.52-1.03-1.48-2.11-2.93-3.22-4.35-1.12-1.42-2.29-2.82-3.49-4.17-.62-.69-1.25-1.38-1.89-2.05-15.3-16.15-36.94-26.08-59.11-27.15-22.18-1.07-44.67,6.76-61.43,21.35-.67.59-1.34,1.19-2,1.78-5.18,4.8-9.76,10.21-13.74,16.03-3.99,5.83-7.39,12.07-10.24,18.55-2.89,6.58-5.24,13.38-7.11,20.3-1.92,7-3.38,14.09-4.47,21.25-.53,3.55-.99,7.14-1.36,10.72-.41,4.06-.26,8.13-.12,12.21.3,8.66,1.05,17.3,2.41,25.85,1.34,8.52,3.34,16.97,6.13,25.15,6.6,19.34,17.95,37.44,34.15,49.85,16.9,12.96,38.74,19.21,59.92,17.34,21.19-1.86,41.52-11.79,56.19-27.23,1.26-1.33,2.48-2.69,3.66-4.09,1.17-1.39,2.3-2.82,3.39-4.27,1.08-1.45,2.13-2.93,3.13-4.44,1-1.51,1.96-3.04,2.88-4.6.92-1.56,1.8-3.14,2.64-4.75.84-1.61,1.65-3.23,2.41-4.88.77-1.65,1.5-3.32,2.19-5,.7-1.69,1.35-3.39,1.98-5.11.63-1.72,1.22-3.46,1.78-5.21.56-1.75,1.09-3.52,1.58-5.29.5-1.78.96-3.57,1.4-5.36.44-1.8.84-3.61,1.22-5.42.38-1.82.73-3.64,1.06-5.47.33-1.83.63-3.67.9-5.51.28-1.84.53-3.68.75-5.53.23-1.84.43-3.69.62-5.54.18-1.84.34-3.69.49-5.54.14-1.84.26-3.68.37-5.52.06-1.03.08-2.02.02-3.05Zm-23.87,6.94c-.08,1.63-.18,3.27-.3,4.9-.23,3.1-.52,6.2-.87,9.29-.36,3.09-.78,6.17-1.29,9.24-.5,3.06-1.08,6.11-1.75,9.14-.67,3.02-1.42,6.03-2.26,9-.84,2.97-1.78,5.91-2.82,8.82-1.04,2.91-2.18,5.77-3.43,8.59-1.08,2.44-2.25,4.85-3.5,7.22,0,.42-.67,1.25-.87,1.63-.32.57-.63,1.15-.97,1.72-.63,1.09-1.28,2.18-1.96,3.27-1.36,2.16-2.79,4.28-4.31,6.34-5.55,7.59-12.19,14.45-19.74,20.06-3.87,2.62-7.67,5.17-11.86,7.25-2.19,1.09-4.45,2.06-6.72,2.93-1.13.44-2.27.85-3.42,1.27-.95.34-1.9.85-2.91.93-.85.06-1.66-.38-2.45-.59-1.07-.3-2.13-.57-3.22-.81-1.56-.36-3.12-.77-4.64-1.27-3.04-.95-6.01-2.16-8.87-3.59-8.28-4.12-15.63-9.99-21.96-16.73-6.4-6.8-11.82-14.55-16.25-22.77-17.81-33.1-21.54-73.04-12.67-109.57,7.08-29.14,23.12-57.52,49.23-72.19,5.38-3.01,11.34-5.45,17.51-5.15,3.18.14,6.28,1.01,9.27,2.08,21.74,7.79,38.68,26.02,48.64,46.88,1.35,2.82,2.58,5.69,3.7,8.6,1.12,2.91,2.14,5.87,3.06,8.85.92,2.99,1.74,6.01,2.47,9.05.73,3.05,1.38,6.12,1.94,9.2.57,3.09,1.05,6.2,1.47,9.31.42,3.12.77,6.24,1.06,9.37.23,2.49.42,4.97.58,7.47.12,1.91.19,3.79.2,5.68,0,1.51-.02,3.02-.1,4.56Z"></path>
      <path class="cls-1" d="m185.51,277.58c-23.2-.43-43.4-18.64-55.48-36.99-14.9-22.63-21.79-50.14-22.3-77.07-.52-27.32,5.46-55.39,19.51-79,6.27-10.53,14.22-20.29,23.98-27.75,3.96-3.03,8.22-5.68,12.72-7.84,2.36-1.14,4.78-2.16,7.27-3,1.73-.58,11.55-2.03,5.26-1.91,1.51-.03,14.4-.02,14.54-1.41.16-1.55-6.9-1.16-8.33-1.13-20.64.39-39.7,3.74-56.19,17.03-17.2,13.86-28.66,33.86-35.27,54.74-14.58,46.1-8.34,104.63,25.21,141.31,15.33,16.76,34.67,25.13,57.2,25.55,4.66.09,11.91.98,16.19-1.07,3.59-1.71-2.68-1.43-4.32-1.46h0Z"></path>
      <path d="m235.78,56.44c-9.05-6.9-18.51-10.71-28.53-12.77,17.47,0,35.17-.36,51.53-4.77,18.35-4.94,20.82-20.98,20.93-38.02,0-1.39-23.68-1.2-23.7.94-.09,13.45-.88,30-15.24,35.79-6.42,2.59-13.49,2.61-20.3,2.81-12.84.39-25.69.56-38.53,1.04h-.75c-1.5,0-14.4.04-14.54,1.41-.07.65,1.1.95,2.59,1.09,2.01.41,5.54.28,7.94.13,49.87,1.74,75.14,61.94,78.36,104.51,2.16,28.6-2.8,58.41-16.43,83.8-5.98,11.14-13.71,21.53-23.34,29.76-4.57,3.9-9.6,7.3-14.97,10-2.68,1.34-5.45,2.53-8.29,3.49-1.73.58-11.55,2.03-5.26,1.91-1.51.03-14.4.02-14.54,1.41-.16,1.55,6.9,1.16,8.33,1.13,21.29-.4,40.77-4.08,57.51-18.12,18.71-15.7,30.43-38.62,36.34-62.06,12.14-48.19,2.66-111.67-39.1-143.5Z"></path>
    </g>
  </g>
</svg><style>@media (prefers-color-scheme: light) { :root { filter: none; } }
@media (prefers-color-scheme: dark) { :root { filter: contrast(1) brightness(1); } }
</style></svg>