<?xml version="1.0" standalone="no"?>
<!DOCTYPE svg PUBLIC "-//W3C//DTD SVG 20010904//EN"
 "http://www.w3.org/TR/2001/REC-SVG-20010904/DTD/svg10.dtd">
<svg version="1.0" xmlns="http://www.w3.org/2000/svg"
 width="712.000000pt" height="712.000000pt" viewBox="0 0 712.000000 712.000000"
 preserveAspectRatio="xMidYMid meet">
<metadata>
Created by potrace 1.14, written by Peter Selinger 2001-2017
</metadata>
<g transform="translate(0.000000,712.000000) scale(0.100000,-0.100000)"
fill="#000000" stroke="none">
<path d="M3618 6245 c-2 -3 -76 -7 -164 -9 -87 -3 -175 -7 -194 -10 -19 -3
-71 -10 -115 -17 -44 -6 -89 -13 -100 -15 -11 -3 -34 -7 -52 -10 -26 -4 -195
-45 -238 -57 -153 -44 -369 -128 -500 -195 -80 -41 -293 -164 -320 -185 -5 -4
-48 -35 -95 -69 -170 -123 -338 -276 -480 -437 -70 -80 -228 -290 -236 -313
-3 -10 -10 -18 -15 -18 -5 0 -9 -4 -9 -9 0 -8 -75 -140 -109 -191 -17 -26
-128 -262 -136 -290 -3 -10 -17 -45 -26 -65 -10 -24 -69 -198 -74 -222 -2 -10
-13 -52 -24 -93 -11 -41 -22 -86 -25 -100 -2 -14 -9 -46 -15 -72 -6 -27 -10
-51 -9 -55 1 -5 -1 -21 -5 -38 -7 -33 -13 -72 -24 -180 -10 -89 -10 -459 0
-550 4 -38 10 -92 13 -120 3 -27 7 -56 10 -64 3 -8 7 -30 10 -50 8 -55 11 -72
24 -126 6 -27 13 -58 15 -68 2 -10 7 -27 10 -37 3 -10 8 -27 10 -38 5 -31 63
-199 102 -302 39 -100 184 -394 209 -421 7 -8 14 -21 14 -27 0 -7 5 -12 10
-12 6 0 10 -5 10 -11 0 -10 99 -158 140 -209 11 -14 44 -55 73 -91 88 -109
215 -241 324 -336 30 -26 60 -53 66 -59 49 -44 329 -244 342 -244 4 0 19 -8
33 -19 46 -32 233 -127 348 -176 98 -42 321 -121 367 -130 10 -3 27 -7 37 -10
10 -3 27 -8 37 -10 10 -2 52 -11 93 -20 41 -9 86 -18 100 -20 14 -3 35 -6 47
-9 12 -3 46 -7 75 -11 29 -3 69 -8 88 -10 36 -5 263 -17 290 -16 8 0 31 1 50
0 45 -1 44 -1 120 5 146 11 189 15 250 25 36 6 82 13 104 17 21 3 48 8 60 10
11 3 32 7 46 10 14 3 59 14 100 25 41 11 82 21 90 23 8 2 47 14 85 27 39 13
72 24 75 24 6 2 1 0 152 61 107 43 267 122 343 169 22 14 47 28 55 32 37 17
223 148 306 215 223 181 395 364 577 618 27 39 87 131 87 135 0 2 10 19 23 38
12 18 38 64 57 102 19 39 39 73 43 76 5 3 9 10 9 15 1 5 14 38 31 74 43 96 92
218 111 280 10 30 20 62 23 70 3 8 7 20 8 25 2 6 8 28 14 50 6 22 10 42 10 45
0 3 4 18 10 33 6 15 13 40 16 55 3 15 7 38 10 52 3 14 8 36 11 50 2 14 9 48
14 75 9 50 13 75 27 210 10 85 9 488 0 565 -10 81 -17 131 -24 165 -3 17 -6
41 -8 55 -3 21 -13 70 -40 190 -15 68 -29 117 -37 126 -5 7 -8 16 -7 20 1 5 0
16 -4 24 -3 8 -11 33 -18 55 -17 58 -81 218 -120 300 -18 39 -33 72 -33 75 -4
24 -215 374 -235 390 -4 3 -14 17 -23 31 -25 39 -136 177 -193 238 -138 149
-261 261 -405 369 -47 35 -92 69 -100 75 -44 35 -221 139 -335 197 -134 68
-261 122 -375 160 -36 12 -72 24 -80 27 -8 4 -19 5 -24 4 -4 -1 -13 2 -20 7
-9 8 -52 20 -126 37 -79 19 -215 45 -255 51 -27 3 -58 8 -67 9 -29 6 -140 16
-220 20 -43 2 -82 6 -86 9 -5 3 -11 3 -14 1z m56 -330 c74 -2 147 -7 163 -9
15 -3 51 -7 78 -11 28 -3 61 -8 75 -11 14 -3 41 -7 60 -10 19 -3 42 -8 50 -11
8 -3 22 -7 30 -8 25 -4 62 -13 125 -30 33 -9 65 -18 70 -19 6 -2 17 -6 25 -9
8 -3 44 -16 80 -28 75 -25 291 -117 303 -129 10 -9 -9 -45 -66 -132 l-18 -28
-102 55 c-107 56 -270 129 -280 123 -1 -1 -12 4 -25 11 -13 7 -31 14 -40 17
-9 2 -66 17 -127 33 -168 43 -265 54 -485 54 -181 0 -275 -6 -384 -28 -117
-23 -269 -63 -321 -85 -11 -5 -55 -23 -98 -41 -299 -121 -602 -358 -795 -621
-26 -34 -49 -65 -52 -68 -12 -11 -60 -90 -60 -99 0 -5 -4 -11 -9 -13 -15 -5
-126 -226 -174 -348 -43 -107 -100 -288 -111 -353 -3 -15 -7 -35 -10 -45 -3
-9 -7 -33 -10 -52 -3 -19 -7 -44 -10 -55 -40 -201 -49 -552 -21 -805 2 -19 6
-55 8 -80 3 -25 7 -59 11 -75 3 -17 7 -41 10 -55 16 -100 90 -348 126 -427 11
-24 20 -46 20 -51 0 -13 138 -280 151 -292 3 -3 16 -23 29 -45 23 -38 93 -136
115 -161 6 -7 26 -31 45 -55 74 -91 273 -270 352 -317 15 -9 28 -20 28 -24 0
-4 5 -8 11 -8 6 0 23 -8 37 -19 120 -84 386 -199 552 -237 103 -23 172 -36
207 -37 24 -1 43 -4 43 -7 0 -3 15 -5 32 -5 39 0 44 -15 28 -74 -21 -79 -88
-129 -191 -145 -25 -4 -57 -9 -70 -11 -13 -2 -54 -6 -91 -9 -37 -2 -72 -7 -78
-11 -12 -7 -10 -115 3 -132 5 -8 16 -9 30 -4 12 5 31 5 42 1 11 -4 29 -4 40 0
11 4 34 4 51 0 18 -4 37 -4 44 0 7 4 26 4 44 0 17 -4 33 -7 36 -8 3 -1 22 3
43 7 22 5 39 5 43 0 3 -5 10 -7 15 -3 10 6 338 7 374 1 11 -2 34 -1 52 4 18 4
36 3 39 -2 3 -5 10 -7 15 -3 12 7 188 8 195 1 3 -3 20 -1 39 3 19 4 36 5 39 2
5 -4 31 -5 126 -3 l30 1 0 70 c0 66 -1 70 -22 71 -13 0 -31 2 -40 4 -9 2 -34
6 -55 9 -42 6 -57 9 -123 25 -25 7 -54 14 -64 16 -35 8 -95 54 -111 85 -9 17
-20 51 -24 76 -8 42 -7 45 10 41 11 -3 19 -2 19 2 0 4 8 7 18 7 68 2 220 38
339 80 54 19 103 36 108 38 27 8 157 75 215 110 257 158 466 401 638 741 22
44 44 91 47 105 4 14 11 27 14 30 3 3 11 18 16 34 l10 30 -108 53 c-107 52
-129 60 -125 46 5 -26 -125 -283 -189 -372 -107 -150 -229 -276 -344 -356 -47
-34 -248 -143 -267 -145 -4 0 -36 -9 -72 -19 -95 -28 -166 -42 -240 -47 -36
-3 -70 -7 -77 -9 -6 -2 -13 2 -15 8 -2 7 -4 433 -3 947 l1 935 159 -1 c199 -1
285 -8 327 -28 56 -27 141 -114 210 -216 51 -76 151 -280 160 -325 4 -23 43
-33 103 -25 l39 5 0 373 0 373 -1129 0 c-622 -1 -1165 -1 -1207 -1 l-78 0 0
-374 0 -375 33 -3 c17 -2 48 -1 69 0 34 4 37 7 53 55 45 137 152 319 249 424
96 104 118 111 394 119 l202 6 0 -919 c0 -506 -2 -922 -6 -925 -10 -10 -268
100 -284 121 -3 4 -23 18 -45 31 -101 60 -300 251 -371 357 -21 32 -41 60 -44
63 -29 27 -148 254 -193 370 -31 79 -73 207 -81 246 -3 16 -12 59 -20 95 -19
85 -25 114 -32 169 -3 25 -7 56 -9 70 -8 58 -18 243 -18 350 -1 179 11 349 38
540 53 384 197 754 384 990 101 127 258 257 386 321 39 18 72 36 75 39 7 7
128 49 158 55 12 2 25 6 30 8 8 5 54 14 142 26 52 8 288 6 320 -2 24 -6 94
-21 102 -22 3 0 10 -3 14 -7 4 -5 14 -8 23 -8 25 0 183 -83 247 -131 59 -42
224 -205 224 -220 0 -4 6 -14 14 -22 31 -30 106 -157 159 -267 77 -159 150
-364 206 -577 l28 -108 124 0 124 0 0 162 c0 90 -2 163 -5 163 -3 0 -6 105 -7
233 0 127 -3 350 -6 495 -2 144 -2 262 0 262 11 0 63 -35 63 -42 0 -4 6 -8 14
-8 8 0 16 -3 18 -7 2 -5 23 -24 48 -43 25 -19 53 -42 64 -50 66 -54 196 -181
257 -250 26 -30 61 -71 79 -90 17 -19 38 -47 47 -62 10 -16 21 -28 25 -28 4 0
8 -6 8 -14 0 -8 3 -16 8 -18 13 -6 76 -100 143 -213 56 -94 167 -318 174 -350
1 -5 7 -23 14 -40 20 -48 41 -108 46 -129 3 -11 11 -40 19 -65 13 -41 19 -63
33 -121 2 -8 5 -24 7 -35 2 -11 6 -27 9 -35 3 -8 8 -31 11 -50 3 -19 8 -47 11
-62 20 -99 30 -238 30 -428 0 -233 -9 -318 -60 -575 -22 -113 -100 -348 -159
-480 -57 -126 -190 -367 -208 -373 -4 -2 -8 -8 -8 -13 0 -14 -92 -136 -182
-244 -87 -103 -239 -253 -348 -340 -78 -63 -283 -205 -296 -205 -4 0 -15 -6
-23 -14 -9 -8 -56 -34 -106 -59 -83 -41 -110 -54 -227 -106 -85 -37 -305 -106
-398 -125 -14 -3 -56 -12 -95 -20 -38 -8 -97 -18 -130 -21 -33 -3 -71 -8 -85
-10 -22 -4 -197 -17 -225 -17 -173 3 -373 18 -465 37 -14 3 -41 8 -60 11 -19
3 -51 9 -70 14 -19 5 -46 11 -60 13 -68 12 -319 93 -334 108 -6 5 -16 9 -23 9
-7 0 -36 11 -65 25 -28 14 -58 25 -65 25 -7 0 -13 4 -13 10 0 5 -3 9 -7 8 -16
-3 -225 109 -231 124 -2 4 -8 8 -13 8 -20 0 -237 154 -319 226 -14 13 -36 32
-50 44 -90 77 -236 233 -310 329 -19 25 -38 48 -42 49 -5 2 -8 8 -8 14 0 5 -6
15 -12 23 -32 33 -36 38 -141 215 -58 98 -160 303 -178 360 -4 14 -17 50 -29
80 -12 30 -23 64 -25 74 -3 11 -11 40 -19 65 -16 46 -51 193 -61 250 -3 17 -8
46 -11 64 -22 127 -28 215 -28 412 -1 234 9 335 49 530 85 413 267 796 529
1115 117 143 282 305 424 415 7 5 18 15 25 21 30 26 245 164 255 164 7 0 12 4
12 9 0 5 15 14 33 22 17 7 34 15 37 19 13 14 228 112 310 141 36 12 71 27 78
32 6 5 12 7 12 4 0 -3 26 3 58 14 31 11 68 23 82 25 14 3 48 11 75 19 49 14
199 43 260 51 86 11 134 15 217 19 50 2 93 7 96 9 3 3 8 3 13 1 4 -3 68 -7
143 -10z"/>
<path d="M5055 3665 c-73 -39 -102 -95 -90 -171 17 -118 156 -172 252 -98 84
64 80 191 -8 256 -35 26 -116 33 -154 13z"/>
<path d="M5055 3184 c-73 -38 -102 -93 -90 -172 13 -86 104 -147 193 -127 42
9 99 60 112 101 44 132 -96 260 -215 198z"/>
</g>
</svg>
