<?xml version="1.0" standalone="no"?>
<!DOCTYPE svg PUBLIC "-//W3C//DTD SVG 20010904//EN"
 "http://www.w3.org/TR/2001/REC-SVG-20010904/DTD/svg10.dtd">
<svg version="1.0" xmlns="http://www.w3.org/2000/svg"
 width="562.000000pt" height="562.000000pt" viewBox="0 0 562.000000 562.000000"
 preserveAspectRatio="xMidYMid meet">
<metadata>
Created by potrace 1.14, written by Peter Selinger 2001-2017
</metadata>
<g transform="translate(0.000000,562.000000) scale(0.100000,-0.100000)"
fill="#000000" stroke="none">
<path d="M5248 5615 c-2 -2 -22 -5 -46 -8 -24 -2 -49 -10 -55 -16 -6 -6 -12
-43 -13 -83 -5 -129 -15 -219 -29 -278 -3 -14 -8 -36 -11 -50 -12 -57 -75
-168 -124 -217 -76 -76 -199 -129 -322 -138 -29 -2 -53 -5 -53 -5 0 -3 -172
-8 -800 -24 -60 -2 -162 -4 -225 -6 -101 -2 -167 -8 -249 -25 -12 -2 -42 -7
-65 -9 -22 -3 -51 -8 -63 -11 -13 -3 -33 -7 -44 -10 -76 -16 -211 -61 -286
-94 l-88 -39 -67 34 c-37 19 -86 41 -110 50 -84 31 -223 76 -248 80 -20 4 -56
11 -90 19 -3 1 -30 5 -60 9 -30 4 -68 10 -85 13 -36 6 -301 6 -330 -1 -11 -2
-49 -7 -85 -11 -36 -4 -68 -9 -71 -11 -3 -2 -21 -6 -40 -9 -39 -7 -120 -29
-199 -55 -54 -17 -95 -35 -192 -79 -26 -11 -52 -21 -57 -21 -6 0 -11 -4 -11
-10 0 -5 -5 -10 -10 -10 -28 0 -246 -150 -334 -230 -101 -92 -226 -234 -285
-325 -14 -22 -29 -42 -32 -45 -18 -15 -131 -222 -177 -325 -52 -115 -146 -385
-157 -448 -3 -17 -8 -33 -10 -37 -2 -4 -7 -22 -10 -41 -8 -40 -13 -62 -15 -69
-1 -3 -3 -9 -4 -15 -1 -5 -5 -23 -9 -40 -4 -16 -9 -43 -12 -60 -2 -16 -6 -40
-9 -52 -2 -11 -7 -43 -11 -70 -4 -26 -9 -59 -11 -73 -16 -100 -19 -160 -18
-345 1 -115 4 -237 8 -270 19 -188 26 -245 42 -330 16 -92 21 -119 31 -160 4
-16 7 -34 8 -40 1 -11 14 -59 47 -175 42 -149 143 -388 227 -533 79 -138 214
-314 325 -422 179 -174 392 -309 612 -388 86 -31 243 -74 299 -81 22 -3 51 -8
65 -12 43 -10 362 -13 430 -3 36 5 79 11 95 14 141 21 378 102 516 176 11 5
32 1 65 -15 135 -66 272 -113 379 -131 11 -2 47 -9 80 -14 116 -21 388 -30
522 -17 329 30 511 73 711 168 257 124 485 333 678 625 84 126 212 387 259
528 20 61 40 117 45 126 13 25 73 275 85 354 3 17 7 41 10 55 3 14 8 45 11 70
3 25 7 56 9 70 27 186 27 644 1 820 -28 192 -34 228 -42 249 -2 8 -7 30 -10
50 -6 35 -23 104 -43 169 -10 32 -11 38 -16 57 -1 6 -22 64 -45 130 -78 223
-196 444 -333 629 -93 123 -361 386 -395 386 -6 0 -12 4 -14 8 -18 43 -375
208 -466 215 -12 1 -22 4 -22 7 0 4 60 7 133 8 152 3 293 9 387 17 36 4 85 8
110 10 25 2 45 5 45 5 0 1 12 3 26 5 50 7 104 15 119 20 8 2 31 6 50 9 65 10
205 54 255 82 103 56 201 183 236 304 17 60 16 59 24 104 4 21 9 48 11 60 2
11 7 69 10 129 5 105 5 107 -18 116 -20 7 -332 13 -340 6z m-1513 -896 c83
-14 228 -60 299 -96 153 -76 257 -152 386 -282 97 -98 113 -116 165 -186 17
-22 33 -41 38 -43 4 -2 7 -9 7 -16 0 -7 9 -21 20 -31 11 -10 20 -23 20 -30 0
-7 9 -20 20 -30 11 -10 17 -21 15 -25 -3 -4 2 -13 10 -20 8 -7 15 -18 15 -25
0 -8 4 -15 8 -17 8 -3 139 -264 162 -323 68 -169 150 -441 174 -580 3 -16 8
-43 12 -58 3 -16 7 -38 9 -50 3 -25 15 -110 21 -147 23 -149 22 -527 -2 -740
-3 -25 -7 -61 -9 -80 -2 -19 -4 -35 -5 -35 -1 0 -3 -13 -5 -30 -4 -29 -27
-142 -39 -195 -11 -47 -18 -80 -18 -87 0 -5 -4 -18 -9 -31 -5 -12 -11 -33 -13
-45 -6 -31 -67 -207 -105 -299 -70 -177 -229 -459 -306 -544 -25 -28 -45 -55
-45 -59 0 -3 -8 -13 -17 -23 -10 -10 -45 -47 -78 -83 -156 -167 -350 -301
-560 -386 -42 -17 -157 -43 -166 -37 -4 2 -11 0 -14 -6 -6 -10 -95 -7 -135 5
-8 2 -31 6 -51 9 -125 18 -382 148 -505 256 l-31 27 31 23 c63 48 253 249 308
326 166 233 276 467 358 757 22 77 42 150 45 161 2 12 7 32 10 46 3 14 7 39
10 55 3 17 10 53 15 80 9 46 12 65 24 143 3 15 7 52 11 82 3 30 8 71 10 90 22
188 22 401 0 561 -3 19 -7 63 -10 99 -3 36 -8 72 -10 80 -3 8 -7 33 -10 55
-12 86 -47 254 -71 345 -14 52 -27 103 -29 113 -4 17 -39 124 -52 157 -4 8 -7
17 -8 20 -40 115 -183 397 -236 464 -5 6 -37 49 -72 96 -63 85 -165 192 -268
283 -34 30 -49 50 -41 53 7 3 18 12 25 19 31 31 158 108 253 155 90 44 174 73
241 83 12 2 25 6 28 9 8 8 79 2 170 -13z m-1686 -20 c107 -31 280 -115 389
-188 51 -34 92 -64 92 -67 0 -3 -12 -16 -27 -30 -81 -74 -154 -148 -193 -195
-25 -29 -49 -57 -55 -63 -32 -36 -135 -191 -188 -284 -83 -144 -174 -353 -219
-502 -11 -36 -22 -72 -25 -80 -3 -8 -7 -19 -9 -25 -1 -5 -14 -57 -28 -114 -14
-57 -24 -106 -21 -109 2 -3 0 -12 -4 -21 -5 -9 -11 -34 -15 -56 -3 -22 -7 -49
-10 -60 -5 -28 -18 -123 -22 -165 -23 -277 -24 -517 0 -715 11 -90 22 -163 40
-265 17 -93 84 -347 105 -395 5 -11 23 -58 41 -105 112 -295 297 -581 516
-797 l113 -111 -32 -25 c-105 -80 -253 -161 -396 -216 -115 -45 -104 -45 -285
4 -111 31 -306 126 -401 197 -134 99 -276 242 -382 383 -41 55 -80 107 -86
115 -7 8 -18 26 -25 40 -6 14 -23 43 -37 65 -67 106 -174 342 -232 510 -24 70
-91 324 -98 374 -2 14 -9 55 -15 91 -37 215 -53 547 -36 729 3 31 8 88 11 126
3 39 8 77 10 85 2 8 7 35 10 60 10 70 15 100 31 175 9 39 17 77 18 85 1 8 8
35 15 60 7 25 15 54 17 66 7 38 73 233 100 294 1 3 5 16 10 30 32 102 216 424
314 550 195 251 501 489 703 545 4 2 8 3 10 5 3 2 21 6 67 15 19 3 35 7 37 8
9 9 130 -6 192 -24z m822 -609 c67 -92 97 -138 141 -215 41 -72 112 -220 123
-255 4 -14 13 -38 21 -55 13 -29 72 -204 79 -235 2 -8 13 -55 25 -105 12 -49
24 -98 26 -108 2 -10 5 -26 8 -35 3 -9 8 -35 11 -57 3 -23 8 -52 11 -65 3 -14
6 -39 8 -56 2 -17 6 -49 10 -70 3 -21 8 -61 11 -89 2 -27 8 -81 12 -120 4 -38
7 -146 7 -240 0 -211 -8 -306 -50 -569 -10 -67 -22 -126 -40 -206 -67 -292
-191 -589 -336 -806 -41 -60 -82 -120 -93 -133 -11 -13 -30 -35 -41 -49 -19
-23 -23 -24 -36 -12 -33 34 -139 182 -191 268 -61 98 -176 331 -197 397 -7 22
-20 50 -28 63 -8 12 -12 22 -9 22 3 0 -6 33 -20 73 -14 39 -27 81 -30 92 -5
23 -5 25 -21 80 -14 52 -59 275 -67 340 -4 28 -8 61 -10 75 -20 153 -26 508
-11 680 5 52 10 111 12 130 1 19 3 35 4 35 1 0 4 14 6 30 2 17 7 46 11 65 4
19 8 42 9 50 4 32 14 87 24 125 6 22 13 51 16 65 9 44 58 209 80 265 4 11 8
22 9 25 1 3 7 18 13 33 7 16 12 33 12 38 0 5 4 17 9 27 6 9 39 78 75 152 61
128 104 209 116 220 3 3 18 25 32 50 14 25 34 55 45 67 10 13 38 50 63 83 l44
61 26 -28 c15 -15 51 -62 81 -103z"/>
</g>
</svg>
